<svg aria-hidden="true" style="position: absolute; width: 0; height: 0; overflow: hidden;" version="1.1" xmlns="http://www.w3.org/2000/svg" xmlns:xlink="http://www.w3.org/1999/xlink">
<defs>
<symbol id="icon-arrow" viewBox="0 0 32 32">
<path d="M31.723 15.578l-9.907-9.694c-0.191-0.145-0.429-0.218-0.671-0.203s-0.469 0.115-0.64 0.283c-0.171 0.168-0.274 0.391-0.289 0.627s0.059 0.47 0.207 0.657l8.211 8.047h-27.641c-0.263 0-0.516 0.102-0.702 0.285s-0.291 0.43-0.291 0.688c0 0.258 0.105 0.505 0.291 0.688s0.439 0.285 0.702 0.285h27.625l-8.195 8.031c-0.111 0.085-0.203 0.191-0.268 0.313s-0.104 0.256-0.113 0.394c-0.009 0.138 0.012 0.276 0.062 0.405s0.127 0.246 0.226 0.344c0.1 0.098 0.219 0.173 0.351 0.222s0.272 0.070 0.413 0.061c0.14-0.009 0.277-0.046 0.402-0.111s0.233-0.154 0.32-0.263l9.907-9.71c0.178-0.181 0.277-0.423 0.277-0.675s-0.099-0.493-0.277-0.675z"></path>
</symbol>
<symbol id="icon-dribbble" viewBox="0 0 32 32">
<path d="M32 16c0 1.084-0.11 2.166-0.327 3.22-0.211 1.030-0.523 2.041-0.933 3.007-0.4 0.949-0.896 1.864-1.476 2.717-0.571 0.848-1.229 1.643-1.952 2.368-0.724 0.722-1.521 1.379-2.367 1.953-0.855 0.577-1.77 1.073-2.718 1.475-0.967 0.408-1.978 0.72-3.006 0.931-1.055 0.217-2.139 0.328-3.223 0.328s-2.169-0.111-3.222-0.328c-1.029-0.211-2.041-0.523-3.006-0.931-0.948-0.402-1.864-0.898-2.719-1.475-0.846-0.574-1.643-1.231-2.366-1.953-0.723-0.725-1.381-1.52-1.953-2.368-0.577-0.853-1.074-1.768-1.475-2.717-0.409-0.966-0.723-1.977-0.934-3.007-0.214-1.055-0.323-2.137-0.323-3.22s0.109-2.169 0.324-3.221c0.212-1.030 0.525-2.042 0.934-3.007 0.402-0.95 0.898-1.866 1.475-2.719 0.572-0.848 1.23-1.642 1.953-2.368 0.723-0.722 1.52-1.377 2.366-1.951 0.855-0.579 1.77-1.075 2.719-1.478 0.966-0.409 1.977-0.722 3.006-0.931 1.053-0.216 2.138-0.325 3.222-0.325s2.168 0.109 3.223 0.325c1.027 0.209 2.039 0.523 3.006 0.931 0.948 0.403 1.863 0.899 2.718 1.478 0.846 0.573 1.643 1.229 2.367 1.951 0.723 0.726 1.381 1.52 1.952 2.368 0.58 0.853 1.076 1.769 1.476 2.719 0.409 0.965 0.722 1.977 0.933 3.007 0.216 1.052 0.327 2.137 0.327 3.221zM10.169 3.641c-3.81 1.799-6.654 5.31-7.541 9.541 0.36 0.003 6.054 0.075 12.615-1.668-2.365-4.202-4.892-7.63-5.074-7.873zM16.375 13.619c-7.035 2.106-13.787 1.955-14.029 1.945-0.004 0.147-0.011 0.289-0.011 0.436 0 3.51 1.324 6.71 3.501 9.13-0.005-0.007 3.735-6.641 11.108-9.025 0.178-0.059 0.359-0.113 0.539-0.164-0.343-0.777-0.717-1.555-1.109-2.322zM25.023 5.745c-2.406-2.121-5.564-3.408-9.024-3.408-1.11 0-2.188 0.134-3.22 0.383 0.205 0.275 2.771 3.68 5.108 7.97 5.156-1.933 7.102-4.895 7.136-4.945zM18.415 18.205c-0.030 0.010-0.061 0.019-0.091 0.030-8.062 2.81-10.695 8.474-10.723 8.536 2.32 1.804 5.229 2.892 8.398 2.892 1.892 0 3.695-0.385 5.334-1.083-0.202-1.194-0.996-5.378-2.919-10.375zM23.635 27.331c3.068-2.070 5.247-5.358 5.855-9.166-0.281-0.091-4.104-1.301-8.515-0.594 1.792 4.925 2.52 8.936 2.66 9.759zM18.939 12.727c0.317 0.652 0.624 1.315 0.908 1.981 0.101 0.239 0.199 0.473 0.295 0.708 4.694-0.591 9.319 0.403 9.516 0.444-0.031-3.239-1.19-6.212-3.107-8.539-0.026 0.037-2.217 3.203-7.612 5.406z"></path>
</symbol>
<symbol id="icon-bus" viewBox="0 0 32 32">
<path d="M5.333 18v7.2c0 2.267 1.853 4.133 4.133 4.133h13.067c2.267 0 4.133-1.853 4.133-4.133v-7.2c0-0.373-0.293-0.667-0.667-0.667h-20c-0.373 0-0.667 0.293-0.667 0.667zM11.84 24.507c-0.307 0.32-0.733 0.493-1.173 0.493-0.107 0-0.213-0.013-0.32-0.027-0.107-0.027-0.213-0.053-0.32-0.107-0.093-0.040-0.2-0.093-0.28-0.147-0.093-0.067-0.187-0.133-0.253-0.213-0.32-0.307-0.493-0.733-0.493-1.173s0.173-0.867 0.493-1.173c0.067-0.080 0.16-0.147 0.253-0.213 0.080-0.053 0.187-0.107 0.28-0.147 0.107-0.053 0.213-0.080 0.32-0.107 0.533-0.107 1.107 0.080 1.493 0.467 0.32 0.307 0.493 0.733 0.493 1.173s-0.173 0.867-0.493 1.173zM22.507 24.507c-0.067 0.080-0.16 0.147-0.253 0.213-0.080 0.053-0.187 0.107-0.28 0.147-0.107 0.053-0.213 0.080-0.307 0.107-0.12 0.013-0.227 0.027-0.333 0.027s-0.213-0.013-0.32-0.027c-0.107-0.027-0.213-0.053-0.32-0.107-0.093-0.040-0.2-0.093-0.28-0.147-0.093-0.067-0.187-0.133-0.253-0.213-0.32-0.307-0.493-0.733-0.493-1.173s0.173-0.867 0.493-1.173c0.067-0.080 0.16-0.147 0.253-0.213 0.080-0.053 0.187-0.107 0.28-0.147 0.107-0.053 0.213-0.080 0.32-0.107 0.213-0.040 0.427-0.040 0.653 0 0.093 0.027 0.2 0.053 0.307 0.107 0.093 0.040 0.2 0.093 0.28 0.147 0.093 0.067 0.187 0.133 0.253 0.213 0.32 0.307 0.493 0.733 0.493 1.173s-0.173 0.867-0.493 1.173z"></path>
<path d="M22.533 2.667h-13.067c-2.28 0-4.133 1.853-4.133 4.133v3.2c0 0.373 0.293 0.667 0.667 0.667h20c0.373 0 0.667-0.293 0.667-0.667v-3.2c0-2.28-1.853-4.133-4.133-4.133zM19.333 7.667h-6.667c-0.547 0-1-0.453-1-1s0.453-1 1-1h6.667c0.547 0 1 0.453 1 1s-0.453 1-1 1z"></path>
<path d="M26 16h-20c-0.373 0-0.667-0.293-0.667-0.667v-2.667c0-0.373 0.293-0.667 0.667-0.667h20c0.373 0 0.667 0.293 0.667 0.667v2.667c0 0.373-0.293 0.667-0.667 0.667z"></path>
</symbol>
<symbol id="icon-driving" viewBox="0 0 32 32">
<path d="M16 25c-0.547 0-1-0.453-1-1v-1.333c0-0.547 0.453-1 1-1s1 0.453 1 1v1.333c0 0.547-0.453 1-1 1z"></path>
<path d="M16 30.333c-0.547 0-1-0.453-1-1v-1.333c0-0.547 0.453-1 1-1s1 0.453 1 1v1.333c0 0.547-0.453 1-1 1z"></path>
<path d="M2.667 30.333c-0.080 0-0.16-0.013-0.24-0.027-0.533-0.133-0.867-0.68-0.733-1.213l1.333-5.333c0.133-0.533 0.667-0.867 1.213-0.733 0.533 0.133 0.867 0.68 0.733 1.213l-1.333 5.333c-0.12 0.453-0.52 0.76-0.973 0.76z"></path>
<path d="M29.003 30.003c-0.453 0-0.853-0.307-0.973-0.76l-1.333-5.333c-0.133-0.533 0.187-1.080 0.733-1.213 0.533-0.133 1.080 0.187 1.213 0.733l1.333 5.333c0.133 0.533-0.187 1.080-0.733 1.213-0.080 0.013-0.16 0.027-0.24 0.027z"></path>
<path d="M25.52 7.067c0 0.4-0.333 0.72-0.72 0.72h-17.427c-0.4 0-0.72-0.333-0.72-0.72 0-0.4 0.333-0.72 0.72-0.72h0.987l0.373-1.747c0.347-1.707 1.067-3.267 3.947-3.267h6.787c2.88 0 3.613 1.56 3.96 3.253l0.373 1.747h0.987c0.4 0 0.733 0.333 0.733 0.733z"></path>
<path d="M25.933 12.533c-0.147-1.6-0.573-3.293-3.68-3.293h-12.347c-3.107 0-3.52 1.707-3.68 3.293l-0.547 5.893c-0.067 0.733 0.173 1.467 0.68 2.027 0.52 0.56 1.24 0.88 2.013 0.88h1.813c1.573 0 1.867-0.893 2.067-1.493l0.2-0.587c0.227-0.667 0.28-0.827 1.147-0.827h4.96c0.867 0 0.893 0.093 1.147 0.827l0.2 0.587c0.187 0.6 0.493 1.493 2.053 1.493h1.813c0.76 0 1.493-0.32 2.013-0.88 0.507-0.547 0.747-1.293 0.68-2.027l-0.533-5.893zM13.173 14.56h-2.893c-0.4 0-0.72-0.333-0.72-0.72s0.333-0.72 0.72-0.72h2.907c0.4 0 0.72 0.333 0.72 0.72s-0.333 0.72-0.733 0.72zM21.88 14.56h-2.907c-0.4 0-0.72-0.333-0.72-0.72s0.333-0.72 0.72-0.72h2.907c0.4 0 0.72 0.333 0.72 0.72s-0.32 0.72-0.72 0.72z"></path>
</symbol>
<symbol id="icon-instagram" viewBox="0 0 32 32">
<path d="M16.001 0c-4.345 0-4.891 0.019-6.597 0.097-1.703 0.078-2.866 0.348-3.883 0.743-1.052 0.409-1.945 0.955-2.834 1.845s-1.437 1.782-1.847 2.834c-0.397 1.018-0.667 2.181-0.743 3.883-0.076 1.707-0.096 2.252-0.096 6.598s0.019 4.889 0.097 6.596c0.078 1.703 0.348 2.866 0.743 3.883 0.409 1.052 0.956 1.945 1.845 2.834s1.782 1.438 2.833 1.847c1.018 0.396 2.181 0.665 3.884 0.743 1.707 0.078 2.252 0.097 6.597 0.097s4.889-0.019 6.596-0.097c1.703-0.078 2.867-0.348 3.885-0.743 1.052-0.409 1.943-0.957 2.832-1.847s1.437-1.782 1.847-2.834c0.393-1.018 0.663-2.181 0.743-3.883 0.077-1.707 0.097-2.251 0.097-6.596s-0.020-4.891-0.097-6.597c-0.080-1.703-0.35-2.866-0.743-3.883-0.41-1.052-0.957-1.945-1.847-2.834s-1.78-1.437-2.833-1.845c-1.020-0.396-2.183-0.665-3.887-0.743-1.707-0.078-2.25-0.097-6.597-0.097h0.005zM14.566 2.883c0.426-0.001 0.901 0 1.435 0 4.272 0 4.778 0.015 6.465 0.092 1.56 0.071 2.407 0.332 2.971 0.551 0.747 0.29 1.279 0.637 1.839 1.197s0.907 1.093 1.197 1.84c0.219 0.563 0.48 1.41 0.551 2.97 0.077 1.687 0.093 2.193 0.093 6.463s-0.017 4.777-0.093 6.463c-0.071 1.56-0.332 2.407-0.551 2.97-0.29 0.747-0.637 1.278-1.197 1.838s-1.092 0.907-1.839 1.197c-0.563 0.22-1.411 0.48-2.971 0.551-1.687 0.077-2.193 0.093-6.465 0.093s-4.779-0.017-6.465-0.093c-1.56-0.072-2.407-0.333-2.971-0.552-0.747-0.29-1.28-0.637-1.84-1.197s-0.907-1.092-1.197-1.839c-0.219-0.563-0.48-1.41-0.551-2.97-0.077-1.687-0.092-2.193-0.092-6.466s0.015-4.777 0.092-6.463c0.071-1.56 0.332-2.407 0.551-2.971 0.29-0.747 0.637-1.28 1.197-1.84s1.093-0.907 1.84-1.197c0.564-0.22 1.411-0.48 2.971-0.552 1.476-0.067 2.048-0.087 5.030-0.090v0.004zM24.542 5.54c-1.060 0-1.92 0.859-1.92 1.919s0.86 1.92 1.92 1.92 1.92-0.86 1.92-1.92c0-1.060-0.86-1.919-1.92-1.919zM16.001 7.783c-4.538 0-8.217 3.679-8.217 8.217s3.679 8.215 8.217 8.215 8.215-3.677 8.215-8.215c0-4.538-3.678-8.217-8.215-8.217zM16.001 10.667c2.945 0 5.333 2.388 5.333 5.333s-2.388 5.333-5.333 5.333c-2.946 0-5.333-2.388-5.333-5.333s2.388-5.333 5.333-5.333z"></path>
</symbol>
<symbol id="icon-ship" viewBox="0 0 32 32">
<path d="M28.84 19.547l-0.547 2.48c-0.947 4.267-4.293 7.307-9.12 7.307h-6.347c-4.827 0-8.173-3.040-9.12-7.307l-0.547-2.48c-0.267-1.213 0.453-2.587 1.613-3.053l9.24-3.707c0.64-0.253 1.32-0.387 1.987-0.387s1.347 0.133 1.987 0.387l9.24 3.707c1.16 0.467 1.88 1.84 1.613 3.053z"></path>
<path d="M25.333 10.667v1.92c0 0.467-0.48 0.8-0.92 0.613l-5.693-2.28c-1.747-0.68-3.693-0.68-5.453 0.013l-5.68 2.28c-0.44 0.187-0.92-0.147-0.92-0.613v-1.933c0-2.2 1.8-4 4-4h10.667c2.2 0 4 1.8 4 4z"></path>
<path d="M19.333 6.667h-6.667v-2.667c0-0.733 0.6-1.333 1.333-1.333h4c0.733 0 1.333 0.6 1.333 1.333v2.667z"></path>
</symbol>
<symbol id="icon-smart-car" viewBox="0 0 32 32">
<path d="M24.947 12.653c-0.133 0-0.267-0.027-0.4-0.080-0.507-0.227-0.733-0.813-0.52-1.32 0.253-0.573 0.107-1.413-0.36-2.107-0.467-0.707-1.173-1.187-1.813-1.147-0.587 0-1-0.44-1.013-0.987 0-0.56 0.44-1 0.987-1.013 1.373-0.027 2.667 0.76 3.507 2.027 0.853 1.28 1.053 2.813 0.533 4.013-0.16 0.387-0.533 0.613-0.92 0.613z"></path>
<path d="M29.093 13.973c-0.093 0-0.173-0.013-0.267-0.040-0.533-0.147-0.84-0.693-0.693-1.227 0.507-1.813 0.080-3.973-1.133-5.787s-3.053-3.027-4.933-3.253c-0.547-0.067-0.933-0.56-0.867-1.107s0.573-0.947 1.107-0.867c2.44 0.293 4.813 1.84 6.347 4.133s2.053 5.067 1.4 7.44c-0.12 0.413-0.52 0.707-0.96 0.707z"></path>
<path d="M22.827 15.707c0 0.4-0.333 0.733-0.733 0.733h-17.52c-0.4 0-0.733-0.333-0.733-0.733s0.333-0.733 0.733-0.733h0.987l0.373-1.76c0.347-1.707 1.080-3.267 3.987-3.267h6.84c2.907 0 3.627 1.573 3.987 3.267l0.373 1.76h0.987c0.387 0 0.72 0.333 0.72 0.733z"></path>
<path d="M23.24 21.213c-0.147-1.6-0.573-3.32-3.693-3.32h-12.427c-3.12 0-3.547 1.72-3.693 3.32l-0.547 5.933c-0.067 0.733 0.173 1.48 0.68 2.040 0.52 0.56 1.24 0.88 2.027 0.88h1.827c1.573 0 1.88-0.907 2.080-1.493l0.2-0.587c0.227-0.667 0.28-0.84 1.16-0.84h4.987c0.88 0 0.907 0.093 1.16 0.84l0.2 0.587c0.2 0.6 0.493 1.493 2.080 1.493h1.827c0.773 0 1.507-0.32 2.027-0.88 0.507-0.56 0.747-1.293 0.68-2.040l-0.573-5.933zM10.413 23.24h-2.92c-0.4 0-0.733-0.333-0.733-0.733s0.333-0.733 0.733-0.733h2.92c0.4 0 0.733 0.333 0.733 0.733s-0.333 0.733-0.733 0.733zM19.173 23.24h-2.92c-0.4 0-0.733-0.333-0.733-0.733s0.333-0.733 0.733-0.733h2.92c0.4 0 0.733 0.333 0.733 0.733s-0.333 0.733-0.733 0.733z"></path>
</symbol>
<symbol id="icon-iost" viewBox="0 0 32 32">
<path d="M26.013 8.56l-8.667-5.093c-0.84-0.493-1.867-0.493-2.707 0l-8.667 5.093c-0.813 0.48-1.32 1.36-1.32 2.293v10.28c0 0.947 0.507 1.813 1.32 2.293l8.667 5.093c0.84 0.493 1.867 0.493 2.707 0l8.667-5.093c0.813-0.48 1.32-1.36 1.32-2.293v-10.28c0-0.933-0.507-1.813-1.32-2.293zM23.187 20.853l-6.667 4c-0.16 0.093-0.333 0.147-0.52 0.147s-0.36-0.053-0.52-0.147l-6.667-4c-0.48-0.28-0.627-0.893-0.347-1.373s0.893-0.627 1.373-0.347l6.147 3.693 4.72-2.84-2.48-1.493-0.867 0.867c-0.2 0.2-0.453 0.293-0.707 0.293s-0.507-0.093-0.707-0.293c-0.387-0.387-0.387-1.027 0-1.413l0.507-0.507-2.4-1.44-0.693 0.693c-0.2 0.2-0.453 0.293-0.707 0.293s-0.507-0.093-0.707-0.293c-0.387-0.387-0.387-1.027 0-1.413l0.347-0.347-3.48-2.093c-0.307-0.187-0.48-0.507-0.48-0.853s0.187-0.68 0.48-0.853l6.667-4c0.32-0.187 0.72-0.187 1.027 0l6.667 4c0.48 0.28 0.627 0.893 0.347 1.373-0.28 0.467-0.893 0.627-1.373 0.347l-6.147-3.693-4.72 2.84 2.48 1.493 0.867-0.867c0.387-0.387 1.027-0.387 1.413 0s0.387 1.027 0 1.413l-0.507 0.507 2.4 1.44 0.693-0.693c0.387-0.387 1.027-0.387 1.413 0s0.387 1.027 0 1.413l-0.347 0.347 3.48 2.093c0.307 0.187 0.48 0.507 0.48 0.853s-0.173 0.68-0.467 0.853z"></path>
</symbol>
<symbol id="icon-stacks" viewBox="0 0 32 32">
<path d="M16 2.667c-7.36 0-13.333 5.973-13.333 13.333s5.973 13.333 13.333 13.333c7.36 0 13.333-5.973 13.333-13.333s-5.973-13.333-13.333-13.333zM22 19h-4.067l2.653 3.76c0.32 0.453 0.213 1.080-0.24 1.387-0.173 0.12-0.373 0.187-0.573 0.187-0.32 0-0.627-0.147-0.813-0.427l-3.067-4.347-3.067 4.347c-0.2 0.28-0.507 0.427-0.813 0.427-0.2 0-0.4-0.053-0.573-0.187-0.453-0.32-0.56-0.947-0.24-1.387l2.653-3.76h-3.827c-0.547 0-1-0.453-1-1s0.453-1 1-1h12c0.547 0 1 0.453 1 1s-0.48 1-1.027 1zM22 15h-12c-0.547 0-1-0.453-1-1s0.453-1 1-1h3.827l-2.653-3.76c-0.32-0.453-0.213-1.080 0.24-1.387 0.453-0.32 1.080-0.213 1.387 0.24l3.067 4.347 3.067-4.347c0.32-0.453 0.947-0.56 1.387-0.24 0.453 0.32 0.56 0.947 0.24 1.387l-2.653 3.76h4.067c0.547 0 1 0.453 1 1s-0.427 1-0.973 1z"></path>
</symbol>
<symbol id="icon-python" viewBox="0 0 32 32">
<path d="M20.026 2.973c-2.667-0.413-5.387-0.413-8.053 0-1.093 0.173-1.893 1.107-1.893 2.2v4.907h-4.907c-1.093 0-2.027 0.8-2.2 1.893-0.413 2.667-0.413 5.387 0 8.053 0.173 1.093 1.107 1.893 2.2 1.893h2.24c0.373 0 0.667-0.293 0.667-0.667v-2.293c0-2.733 2.227-4.96 4.96-4.96h5.92c0.533 0 0.96-0.427 0.96-0.96v-4.293c0-0.373 0.293-0.667 0.667-0.667h0.667c0.373 0 0.667-0.293 0.667-0.667v-2.24c0-1.093-0.8-2.027-1.893-2.2zM13.773 7.44c-0.547 0-1.067-0.52-1.067-1.067 0-0.56 0.52-1.080 1.067-1.080 0.267 0 0.56 0.12 0.747 0.307 0.2 0.187 0.333 0.493 0.333 0.773 0 0.547-0.52 1.067-1.080 1.067z"></path>
<path d="M29.026 11.973c-0.173-1.093-1.107-1.893-2.2-1.893h-4.24c-0.373 0-0.667 0.293-0.667 0.667v2.293c0 1.627-1.32 2.96-2.96 2.96h-5.92c-1.64 0-2.96 1.32-2.96 2.96v7.867c0 1.093 0.8 2.027 1.893 2.2 2.667 0.413 5.387 0.413 8.053 0 1.093-0.173 1.893-1.107 1.893-2.2v-4.907h4.907c1.093 0 2.027-0.8 2.2-1.893 0.413-2.667 0.413-5.387 0-8.053zM18.227 26.707c-0.547 0-1.080-0.52-1.080-1.080s0.52-1.080 1.080-1.080c0.253 0 0.56 0.12 0.747 0.293 0.2 0.187 0.333 0.507 0.333 0.773-0.013 0.573-0.533 1.093-1.080 1.093z"></path>
</symbol>
<symbol id="icon-twitter" viewBox="0 0 32 32">
<path d="M15.538 9.448l0.069 1.211-1.156-0.148c-4.208-0.568-7.885-2.496-11.006-5.734l-1.526-1.607-0.393 1.186c-0.832 2.645-0.301 5.437 1.434 7.316 0.925 1.038 0.717 1.186-0.879 0.568-0.555-0.198-1.040-0.346-1.087-0.272-0.162 0.173 0.393 2.422 0.832 3.312 0.601 1.236 1.827 2.447 3.168 3.164l1.133 0.568-1.341 0.025c-1.295 0-1.341 0.025-1.202 0.544 0.462 1.606 2.289 3.312 4.324 4.053l1.434 0.519-1.249 0.791c-1.85 1.137-4.023 1.779-6.197 1.829-1.040 0.025-1.896 0.124-1.896 0.198 0 0.247 2.821 1.631 4.463 2.175 4.925 1.607 10.775 0.914 15.168-1.829 3.121-1.953 6.243-5.833 7.7-9.59 0.786-2.002 1.572-5.66 1.572-7.415 0-1.137 0.069-1.285 1.364-2.645 0.763-0.791 1.48-1.656 1.619-1.903 0.231-0.47 0.208-0.47-0.971-0.049-1.965 0.741-2.243 0.643-1.272-0.47 0.717-0.791 1.572-2.224 1.572-2.645 0-0.074-0.347 0.049-0.74 0.272-0.416 0.247-1.341 0.618-2.035 0.84l-1.249 0.42-1.133-0.816c-0.624-0.445-1.503-0.939-1.965-1.087-1.179-0.346-2.983-0.297-4.046 0.099-2.89 1.112-4.717 3.979-4.509 7.118z"></path>
</symbol>
<symbol id="icon-youtube" viewBox="0 0 32 32">
<path d="M28.502 2.836c1.377 0.46 2.461 1.815 2.829 3.536 0.669 3.119 0.669 9.628 0.669 9.628s0 6.508-0.669 9.628c-0.368 1.721-1.452 3.076-2.829 3.536-2.495 0.836-12.502 0.836-12.502 0.836s-10.007 0-12.502-0.836c-1.377-0.46-2.461-1.815-2.829-3.536-0.669-3.12-0.669-9.628-0.669-9.628s0-6.508 0.669-9.628c0.368-1.721 1.452-3.076 2.829-3.536 2.495-0.836 12.502-0.836 12.502-0.836s10.007 0 12.502 0.836zM13 10.522v12.174l8-6.087-8-6.087z"></path>
</symbol>
</defs>
</svg>
