<svg width="210" height="48" viewBox="0 0 210 48" fill="none" xmlns="http://www.w3.org/2000/svg">
<path d="M29.2662 33.0906C28.2805 33.0906 27.392 32.4961 27.016 31.5849L25.5778 28.0997C25.2018 27.1885 24.3134 26.594 23.3276 26.594H13.2641C12.2612 26.594 11.3609 27.2091 10.9963 28.1435L9.67076 31.5411C9.30622 32.4754 8.40592 33.0906 7.40297 33.0906H3.722C1.96653 33.0906 0.788204 31.2889 1.49181 29.6806L13.8386 1.4586C14.2262 0.572539 15.1016 0 16.0688 0H20.9695C21.94 0 22.8177 0.576383 23.2033 1.46689L35.4254 29.6889C36.1215 31.2962 34.9432 33.0906 33.1916 33.0906H29.2662ZM20.6279 14.7956C19.8383 12.705 16.885 12.6939 16.0798 14.7785L15.2683 16.8795C14.6523 18.4744 15.8293 20.1908 17.5391 20.1908H19.1441C20.8461 20.1908 22.0227 18.4888 21.4214 16.8965L20.6279 14.7956Z" fill="#647B64"/>
<path d="M69.069 34.6329C69.069 36.6271 68.7116 38.4499 67.9967 40.1013C67.3143 41.7215 66.3231 43.1237 65.0233 44.3077C63.7235 45.4606 62.1475 46.3642 60.2952 47.0185C58.4755 47.6728 56.4445 48 54.2024 48C51.9277 48 49.8805 47.6728 48.0607 47.0185C46.241 46.3642 44.6974 45.4606 43.4301 44.3077C42.1628 43.1237 41.1879 41.7215 40.5055 40.1013C39.8231 38.4499 39.4819 36.6271 39.4819 34.6329V25.0088C39.4819 23.6644 38.3921 22.5746 37.0477 22.5746H36.8985H29.3092C28.2312 22.5746 27.2816 21.8656 26.9753 20.8321L25.8831 17.1475C25.4206 15.5873 26.5897 14.0214 28.217 14.0214H45.334C46.6784 14.0214 47.7683 15.1113 47.7683 16.4557V33.9786C47.7683 34.8822 47.882 35.739 48.1095 36.5492C48.3694 37.3593 48.7431 38.0915 49.2306 38.7459C49.7505 39.369 50.4166 39.8676 51.229 40.2415C52.0739 40.6154 53.0813 40.8023 54.2511 40.8023C55.4209 40.8023 56.412 40.6154 57.2244 40.2415C58.0693 39.8676 58.7517 39.369 59.2716 38.7459C59.7916 38.0915 60.1653 37.3593 60.3927 36.5492C60.6202 35.739 60.7339 34.8822 60.7339 33.9786V16.4557C60.7339 15.1113 61.8238 14.0214 63.1682 14.0214H66.6347C67.9791 14.0214 69.069 15.1113 69.069 16.4557V34.6329Z" fill="#647B64"/>
<path d="M86.8133 18.6173C87.0873 18.0134 87.6892 17.6255 88.3523 17.6255C89.0178 17.6255 89.6212 18.016 89.8939 18.623L94.7256 29.3774C95.114 30.2418 94.4816 31.2191 93.534 31.2191C93.0099 31.2191 92.5366 30.9059 92.3316 30.4236L92.0089 29.6639C91.6082 28.721 90.6828 28.1087 89.6583 28.1087H86.8828C85.865 28.1087 84.9478 28.7228 84.56 29.6639L84.2435 30.4323C84.0473 30.9084 83.5832 31.2191 83.0683 31.2191C82.1443 31.2191 81.5291 30.2644 81.9108 29.423L86.8133 18.6173ZM88.2718 26.0351C89.3255 26.0351 90.0479 24.9733 89.6611 23.9932C89.1653 22.7372 87.3897 22.7316 86.886 23.9845C86.4916 24.9659 87.2141 26.0351 88.2718 26.0351Z" fill="#647B64"/>
<path d="M95.7946 19.3149C95.5383 18.4745 96.167 17.6255 97.0457 17.6255C97.6346 17.6255 98.1508 18.0191 98.3069 18.5869L100.781 27.5898C100.784 27.6015 100.794 27.6095 100.806 27.6095C100.818 27.6095 100.828 27.6019 100.832 27.5907L103.562 18.8641C103.793 18.1272 104.475 17.6255 105.247 17.6255C106.023 17.6255 106.708 18.1318 106.936 18.8734L109.611 27.5906C109.614 27.6018 109.624 27.6095 109.636 27.6095C109.648 27.6095 109.659 27.6015 109.662 27.59L112.199 18.5542C112.353 18.005 112.854 17.6255 113.424 17.6255C114.279 17.6255 114.891 18.4516 114.642 19.2694L111.358 30.039C111.144 30.7401 110.497 31.2191 109.764 31.2191C109.043 31.2191 108.404 30.7551 108.18 30.0695L105.237 21.0429C105.234 21.0316 105.223 21.0239 105.211 21.0239C105.199 21.0239 105.189 21.0316 105.185 21.0429L102.242 30.0695C102.018 30.7551 101.379 31.2191 100.658 31.2191C99.9251 31.2191 99.2783 30.7401 99.0645 30.039L95.7946 19.3149Z" fill="#647B64"/>
<path d="M116.823 20.6255C116.823 18.9687 118.166 17.6255 119.823 17.6255H125.158C125.741 17.6255 126.214 18.0983 126.214 18.6815C126.214 19.2647 125.741 19.7375 125.158 19.7375H121.074C120.12 19.7375 119.346 20.5112 119.346 21.4655C119.346 22.4199 120.12 23.1935 121.074 23.1935H124.836C125.398 23.1935 125.854 23.6491 125.854 24.2111C125.854 24.7731 125.398 25.2287 124.836 25.2287H121.266C120.206 25.2287 119.346 26.0883 119.346 27.1487C119.346 28.2091 120.206 29.0687 121.266 29.0687H125.499C126.093 29.0687 126.575 29.5501 126.575 30.1439C126.575 30.7377 126.093 31.2191 125.499 31.2191H119.823C118.166 31.2191 116.823 29.876 116.823 28.2191V20.6255Z" fill="#647B64"/>
<path d="M137.136 19.5591C136.679 20.0395 135.881 20.0043 135.286 19.713C135.236 19.6885 135.184 19.6647 135.132 19.6415C134.651 19.4111 134.164 19.2959 133.67 19.2959C133.376 19.2959 133.083 19.3343 132.789 19.4111C132.495 19.4751 132.228 19.5839 131.988 19.7375C131.748 19.8783 131.547 20.0703 131.387 20.3135C131.24 20.5439 131.167 20.8255 131.167 21.1583C131.167 21.4655 131.234 21.7279 131.367 21.9455C131.501 22.1631 131.681 22.3487 131.908 22.5023C132.148 22.6559 132.435 22.7903 132.769 22.9055C133.103 23.0207 133.47 23.1359 133.87 23.2511C134.324 23.3919 134.791 23.5519 135.272 23.7311C135.766 23.9103 136.213 24.1471 136.613 24.4415C137.027 24.7359 137.361 25.1071 137.615 25.5551C137.882 26.0031 138.015 26.5599 138.015 27.2255C138.015 27.9551 137.875 28.5951 137.595 29.1455C137.314 29.6831 136.941 30.1311 136.473 30.4895C136.006 30.8479 135.459 31.1167 134.831 31.2959C134.204 31.4751 133.543 31.5647 132.849 31.5647C131.928 31.5647 131.027 31.4047 130.146 31.0847C129.661 30.9015 129.224 30.6717 128.836 30.3954C128.317 30.0252 128.366 29.2829 128.841 28.8574C129.349 28.4029 130.139 28.4983 130.716 28.8616C130.858 28.9508 131.008 29.0326 131.167 29.1071C131.754 29.3759 132.328 29.5103 132.889 29.5103C133.183 29.5103 133.483 29.4783 133.79 29.4143C134.097 29.3375 134.371 29.2159 134.611 29.0495C134.865 28.8831 135.065 28.6783 135.212 28.4351C135.372 28.1791 135.452 27.8655 135.452 27.4943C135.452 27.1359 135.365 26.8415 135.192 26.6111C135.018 26.3679 134.785 26.1631 134.491 25.9967C134.197 25.8175 133.85 25.6639 133.45 25.5359C133.049 25.4079 132.629 25.2735 132.188 25.1327C131.761 25.0047 131.334 24.8511 130.907 24.6719C130.48 24.4927 130.092 24.2559 129.745 23.9615C129.412 23.6671 129.138 23.3087 128.924 22.8863C128.711 22.4511 128.604 21.9135 128.604 21.2735C128.604 20.5823 128.751 19.9871 129.045 19.4879C129.352 18.9887 129.745 18.5791 130.226 18.2591C130.72 17.9263 131.274 17.6831 131.888 17.5295C132.515 17.3631 133.149 17.2799 133.79 17.2799C134.511 17.2799 135.239 17.4015 135.973 17.6447C136.337 17.7632 136.677 17.9105 136.994 18.0866C137.534 18.3873 137.562 19.1107 137.136 19.5591Z" fill="#647B64"/>
<path d="M139.862 24.3839C139.862 23.2959 140.049 22.3167 140.422 21.4463C140.809 20.5631 141.337 19.8143 142.004 19.1999C142.685 18.5855 143.486 18.1119 144.407 17.7791C145.341 17.4463 146.356 17.2799 147.451 17.2799C148.559 17.2799 149.58 17.4463 150.514 17.7791C151.449 18.1119 152.256 18.5855 152.937 19.1999C153.618 19.8143 154.145 20.5631 154.519 21.4463C154.906 22.3167 155.1 23.2959 155.1 24.3839C155.1 25.4463 154.906 26.4191 154.519 27.3023C154.145 28.1727 153.618 28.9279 152.937 29.5679C152.256 30.1951 151.449 30.6879 150.514 31.0463C149.58 31.3919 148.559 31.5647 147.451 31.5647C146.356 31.5647 145.341 31.3919 144.407 31.0463C143.486 30.6879 142.685 30.1951 142.004 29.5679C141.337 28.9279 140.809 28.1727 140.422 27.3023C140.049 26.4191 139.862 25.4463 139.862 24.3839ZM142.605 24.3839C142.605 25.1135 142.718 25.7855 142.945 26.3999C143.186 27.0015 143.519 27.5263 143.947 27.9743C144.387 28.4223 144.901 28.7743 145.488 29.0303C146.089 29.2735 146.75 29.3951 147.471 29.3951C148.192 29.3951 148.852 29.2735 149.453 29.0303C150.054 28.7743 150.568 28.4223 150.995 27.9743C151.435 27.5263 151.769 27.0015 151.996 26.3999C152.236 25.7855 152.356 25.1135 152.356 24.3839C152.356 23.6799 152.236 23.0271 151.996 22.4255C151.769 21.8239 151.442 21.2991 151.015 20.8511C150.588 20.4031 150.074 20.0511 149.473 19.7951C148.872 19.5391 148.205 19.4111 147.471 19.4111C146.736 19.4111 146.069 19.5391 145.468 19.7951C144.881 20.0511 144.374 20.4031 143.947 20.8511C143.519 21.2991 143.186 21.8239 142.945 22.4255C142.718 23.0271 142.605 23.6799 142.605 24.3839Z" fill="#647B64"/>
<path d="M157.535 19.9613C157.535 18.6713 158.581 17.6255 159.871 17.6255C160.84 17.6255 161.708 18.2236 162.053 19.1287L165.154 27.2551C165.16 27.272 165.176 27.2831 165.194 27.2831C165.212 27.2831 165.229 27.2719 165.235 27.255L168.296 19.1419C168.641 18.2294 169.514 17.6255 170.489 17.6255C171.784 17.6255 172.833 18.6749 172.833 19.9694V29.9676C172.833 30.6588 172.273 31.2191 171.582 31.2191C170.891 31.2191 170.33 30.6588 170.33 29.9676V20.3181C170.33 20.305 170.32 20.2943 170.307 20.2943C170.297 20.2943 170.288 20.3003 170.284 20.3094L166.307 30.4015C166.113 30.8948 165.637 31.2191 165.106 31.2191C164.574 31.2191 164.096 30.8921 163.903 30.3958L159.984 20.3095C159.98 20.3003 159.972 20.2943 159.962 20.2943C159.949 20.2943 159.938 20.305 159.938 20.3181V30.0177C159.938 30.6812 159.4 31.2191 158.737 31.2191C158.073 31.2191 157.535 30.6812 157.535 30.0177V19.9613Z" fill="#647B64"/>
<path d="M175.955 20.6255C175.955 18.9687 177.299 17.6255 178.955 17.6255H184.291C184.874 17.6255 185.347 18.0983 185.347 18.6815C185.347 19.2647 184.874 19.7375 184.291 19.7375H180.206C179.252 19.7375 178.478 20.5112 178.478 21.4655C178.478 22.4199 179.252 23.1935 180.206 23.1935H183.969C184.531 23.1935 184.986 23.6491 184.986 24.2111C184.986 24.7731 184.531 25.2287 183.969 25.2287H180.398C179.338 25.2287 178.478 26.0883 178.478 27.1487C178.478 28.2091 179.338 29.0687 180.398 29.0687H184.632C185.226 29.0687 185.707 29.5501 185.707 30.1439C185.707 30.7377 185.226 31.2191 184.632 31.2191H178.955C177.299 31.2191 175.955 29.876 175.955 28.2191V20.6255Z" fill="#647B64"/>
<path d="M204.476 26.2271C204.476 27.0463 204.329 27.7887 204.036 28.4543C203.742 29.1071 203.342 29.6639 202.834 30.1247C202.327 30.5855 201.726 30.9439 201.032 31.1999C200.338 31.4431 199.584 31.5647 198.769 31.5647C197.955 31.5647 197.201 31.4431 196.507 31.1999C195.813 30.9439 195.205 30.5855 194.685 30.1247C194.177 29.6639 193.777 29.1071 193.483 28.4543C193.203 27.7887 193.063 27.0463 193.063 26.2271V18.887C193.063 18.1903 193.628 17.6255 194.324 17.6255C195.021 17.6255 195.586 18.1903 195.586 18.887V26.1311C195.586 26.5279 195.639 26.9247 195.746 27.3215C195.853 27.7055 196.026 28.0511 196.266 28.3583C196.52 28.6655 196.847 28.9151 197.248 29.1071C197.661 29.2991 198.169 29.3951 198.769 29.3951C199.37 29.3951 199.871 29.2991 200.271 29.1071C200.685 28.9151 201.012 28.6655 201.252 28.3583C201.506 28.0511 201.686 27.7055 201.793 27.3215C201.9 26.9247 201.953 26.5279 201.953 26.1311V18.887C201.953 18.1903 202.518 17.6255 203.215 17.6255C203.911 17.6255 204.476 18.1903 204.476 18.887V26.2271Z" fill="#647B64"/>
<path d="M207.477 18.887C207.477 18.1903 208.042 17.6255 208.739 17.6255C209.435 17.6255 210 18.1903 210 18.887V29.9576C210 30.6543 209.435 31.2191 208.739 31.2191C208.042 31.2191 207.477 30.6543 207.477 29.9576V18.887Z" fill="#647B64"/>
</svg>
